# xmcd CD database file
#
# Track frame offsets:
#	150
#	18148
#	42280
#	68680
#	89905
#	110790
#	138738
#
# Disc length: 2141 seconds
#
# Revision: 5
# Processed by: cddbd v1.5PL3 Copyright (c) Steve Scherf et al.
# Submitted via: CDex 1.50Beta5
#
DISCID=62085b07
DTITLE=藤谷美和子 - BELIEVERS
DYEAR=1900
DGENRE=JPop
TTITLE0=FALL FROM GRACE
TTITLE1=私たちになりたくて
TTITLE2=あなたに騙されたい
TTITLE3=WE ARE BELIEVERS
TTITLE4=スペアキー 〜愛されてもしょうがない〜
TTITLE5=愛が生まれた日(Aquatic Beast Mix)
TTITLE6=星のララバイ
EXTD=
EXTT0=
EXTT1=
EXTT2=
EXTT3=
EXTT4=
EXTT5=
EXTT6=
PLAYORDER=
